<!DOCTYPE svg PUBLIC "-//W3C//DTD SVG 1.1//EN" "http://www.w3.org/Graphics/SVG/1.1/DTD/svg11.dtd">
<!-- Uploaded to: SVG Repo, www.svgrepo.com, Transformed by: SVG Repo Mixer Tools -->
<svg width="800px" height="800px" viewBox="0 0 16 16" xmlns="http://www.w3.org/2000/svg" fill="#ffffff" class="bi bi-input-cursor">
<g id="SVGRepo_bgCarrier" stroke-width="0"/>
<g id="SVGRepo_tracerCarrier" stroke-linecap="round" stroke-linejoin="round"/>
<g id="SVGRepo_iconCarrier"> <path d="M10 5h4a1 1 0 0 1 1 1v4a1 1 0 0 1-1 1h-4v1h4a2 2 0 0 0 2-2V6a2 2 0 0 0-2-2h-4v1zM6 5V4H2a2 2 0 0 0-2 2v4a2 2 0 0 0 2 2h4v-1H2a1 1 0 0 1-1-1V6a1 1 0 0 1 1-1h4z"/> <path fill-rule="evenodd" d="M8 1a.5.5 0 0 1 .5.5v13a.5.5 0 0 1-1 0v-13A.5.5 0 0 1 8 1z"/> </g>
</svg>